[img]http://i.imgrz.com/7KmoI.jpg[/img]
[code]

Kill.Em.All.2013.DVDRIP.XVID.AC3.5.1-26K
 
http://uk.imdb.com/title/tt1928335/

Plot:
Captured international assassins are locked up inside a high-tech bunker known as the Killing Chamber. To break out of this concrete hell they must duel each other, fight deadly ninjas and battle against gangs of masked maniacs. And... if they survive this, they will have to confront Snakehead: the lethal, deranged top dog who will stop at nothing to kill 'em all! 

Sources - Audio-dvd....Thanks :P
          VIDEO-dvd.....Thanks :P
          Subs-English subs in torrent...
Video
ID                                       : 0
Format                                   : MPEG-4 Visual
Format profile                           : Advanced Simple@L5
Format settings, BVOP                    : 2
Format settings, QPel                    : No
Format settings, GMC                     : No warppoints
Format settings, Matrix                  : Default (H.263)
Muxing mode                              : Packed bitstream
Codec ID                                 : XVID
Codec ID/Hint                            : XviD
Duration                                 : 1h 26mn
Bit rate                                 : 1 795 Kbps
Width                                    : 720 pixels
Height                                   : 400 pixels
Display aspect ratio                     : 16:9
Frame rate                               : 23.976 fps
Color space                              : YUV
Chroma subsampling                       : 4:2:0
Bit depth                                : 8 bits
Scan type                                : Progressive
Compression mode                         : Lossy
Bits/(Pixel*Frame)                       : 0.260
Stream size                              : 1.08 GiB (82%)
Writing library                          : XviD 64

Audio
ID                                       : 1
Format                                   : AC-3
Format/Info                              : Audio Coding 3
Codec ID                                 : 2000
Duration                                 : 1h 26mn
Bit rate mode                            : Constant
Bit rate                                 : 384 Kbps
Channel(s)                               : 6 channels
Sampling rate                            : 48.0 KHz
Compression mode                         : Lossy
Stream size                              : 237 MiB (18%)
Alignment                                : Aligned on interleaves
Interleave, duration                     : 5172214 ms (124 009.00 video frames)

Notes -
enjoy.. nothing much done here cropped, resized, sharpened extra... enjoy has eng subs in torrent enjoy :D

[/code]

Screens:
[IMG]http://i.imgur.com/FNdNk.png[/IMG]
[IMG]http://i.imgur.com/6g2Dm.png[/IMG]
[IMG]http://i.imgur.com/mKdXe.png[/IMG]
[IMG]http://i.imgur.com/xyNSQ.png[/IMG]
[img]http://s6.postimage.org/kw4uyh3z5/vlcsnap_2012_12_14_18h27m52s102.png[/img]
[img]http://s6.postimage.org/isz14jtk1/vlcsnap_2012_12_14_18h28m05s239.png[/img]
[img]http://s6.postimage.org/ihhkrsd41/vlcsnap_2012_12_14_18h28m11s41.png[/img]
[img]http://s6.postimage.org/7j6b9loip/vlcsnap_2012_12_14_18h28m19s123.png[/img]

Greetz:
XtremeEncode|CM8|RX|VISION|HDSCENE|xTriLL|DTRG|CRYS|BIDA|RX|REFILL|INSPiRAL|AXED|HOPE|Anonymous|NOIR|Blackjesus|Gabroo Punjab Deh|UNiQUE|DQ1|RESiSTANCE|HS||LEGION|STN|BOBBYBLUE|LIFT

To all the people who have helped me  you know who you are

Anything to offer email us @: 26k@hushmail.me
<<bullying has to be stopped now!>>